<svg xmlns="http://www.w3.org/2000/svg" viewBox="0 0 32 32" fill="none">
  <rect width="32" height="32" fill="#0a0a0a"/>
  <!-- Mosaic pattern inspired favicon -->
  <rect x="2" y="2" width="6" height="6" fill="#6366f1"/>
  <rect x="9" y="2" width="5" height="5" fill="#3b82f6"/>
  <rect x="15" y="2" width="7" height="6" fill="#818cf8"/>
  <rect x="23" y="2" width="7" height="7" fill="#4f46e5"/>
  <rect x="2" y="9" width="5" height="6" fill="#a78bfa"/>
  <rect x="8" y="8" width="6" height="5" fill="#c4b5fd"/>
  <rect x="15" y="9" width="5" height="6" fill="#6366f1"/>
  <rect x="21" y="10" width="6" height="5" fill="#818cf8"/>
  <rect x="2" y="16" width="7" height="5" fill="#3b82f6"/>
  <rect x="10" y="14" width="5" height="7" fill="#4f46e5"/>
  <rect x="16" y="16" width="6" height="5" fill="#a78bfa"/>
  <rect x="23" y="16" width="7" height="6" fill="#6366f1"/>
  <rect x="2" y="22" width="6" height="8" fill="#818cf8"/>
  <rect x="9" y="22" width="5" height="6" fill="#6366f1"/>
  <rect x="15" y="22" width="7" height="8" fill="#4f46e5"/>
  <rect x="23" y="23" width="7" height="7" fill="#3b82f6"/>
</svg>
